<svg version="1.2" xmlns="http://www.w3.org/2000/svg" viewBox="0 0 1200 900" width="1200" height="900">
	<title>4102828_920-ai</title>
	<defs>
		<linearGradient id="g1" x2="1" gradientUnits="userSpaceOnUse" gradientTransform="matrix(349.013,201.503,-91.382,158.279,540.141,381.432)">
			<stop offset="0" stop-color="#c0d6ff"/>
			<stop offset="1" stop-color="#e9ffff"/>
		</linearGradient>
		<linearGradient id="g2" x2="1" gradientUnits="userSpaceOnUse" gradientTransform="matrix(307.342,0,0,164.416,356.954,402.981)">
			<stop offset=".355" stop-color="#bcd5ff"/>
			<stop offset=".893" stop-color="#5778ff"/>
		</linearGradient>
		<linearGradient id="g3" x2="1" gradientUnits="userSpaceOnUse" gradientTransform="matrix(358.075,206.735,-94.022,162.85,539.228,356.67)">
			<stop offset="0" stop-color="#e9ffff"/>
			<stop offset="1" stop-color="#c0d6ff"/>
		</linearGradient>
		<linearGradient id="g4" x2="1" gradientUnits="userSpaceOnUse" gradientTransform="matrix(-190.706,152.925,-127.51,-159.013,1079.02,446.383)">
			<stop offset="0" stop-color="#bcd5ff"/>
			<stop offset="1" stop-color="#5778ff"/>
		</linearGradient>
		<linearGradient id="g5" x2="1" gradientUnits="userSpaceOnUse" gradientTransform="matrix(-216.677,-4.811,2.778,-125.114,1036.977,487.583)">
			<stop offset="0" stop-color="#c0d6ff"/>
			<stop offset="1" stop-color="#e9ffff"/>
		</linearGradient>
		<linearGradient id="g6" x2="1" gradientUnits="userSpaceOnUse" gradientTransform="matrix(-216.677,-4.811,2.778,-125.114,1036.977,487.583)">
			<stop offset="0" stop-color="#c0d6ff"/>
			<stop offset="1" stop-color="#e9ffff"/>
		</linearGradient>
		<linearGradient id="g7" x2="1" gradientUnits="userSpaceOnUse" gradientTransform="matrix(-190.706,152.925,-127.51,-159.013,1079.02,409.456)">
			<stop offset="0" stop-color="#bcd5ff"/>
			<stop offset="1" stop-color="#5778ff"/>
		</linearGradient>
		<linearGradient id="g8" x2="1" gradientUnits="userSpaceOnUse" gradientTransform="matrix(-216.677,-4.811,2.778,-125.114,1036.977,450.657)">
			<stop offset="0" stop-color="#c0d6ff"/>
			<stop offset="1" stop-color="#e9ffff"/>
		</linearGradient>
		<linearGradient id="g9" x2="1" gradientUnits="userSpaceOnUse" gradientTransform="matrix(-190.706,152.925,-127.511,-159.013,304.942,610.04)">
			<stop offset="0" stop-color="#bcd5ff"/>
			<stop offset="1" stop-color="#5778ff"/>
		</linearGradient>
		<linearGradient id="g10" x2="1" gradientUnits="userSpaceOnUse" gradientTransform="matrix(-216.677,-4.811,2.778,-125.114,262.898,651.241)">
			<stop offset="0" stop-color="#c0d6ff"/>
			<stop offset="1" stop-color="#e9ffff"/>
		</linearGradient>
		<linearGradient id="g11" x2="1" gradientUnits="userSpaceOnUse" gradientTransform="matrix(210.157,0,0,121.311,489.831,386.599)">
			<stop offset="0" stop-color="#5778ff"/>
			<stop offset="1" stop-color="#bcd5ff"/>
		</linearGradient>
		<linearGradient id="g12" x2="1" gradientUnits="userSpaceOnUse" gradientTransform="matrix(210.157,0,0,121.311,489.831,330.064)">
			<stop offset="0" stop-color="#5778ff"/>
			<stop offset="1" stop-color="#bcd5ff"/>
		</linearGradient>
		<linearGradient id="g13" x2="1" gradientUnits="userSpaceOnUse" gradientTransform="matrix(210.157,0,0,121.311,489.831,272.356)">
			<stop offset="0" stop-color="#5778ff"/>
			<stop offset="1" stop-color="#bcd5ff"/>
		</linearGradient>
		<linearGradient id="g14" x2="1" gradientUnits="userSpaceOnUse" gradientTransform="matrix(210.157,0,0,121.311,489.831,214.647)">
			<stop offset="0" stop-color="#5778ff"/>
			<stop offset="1" stop-color="#bcd5ff"/>
		</linearGradient>
		<linearGradient id="g15" x2="1" gradientUnits="userSpaceOnUse" gradientTransform="matrix(210.157,0,0,121.311,489.831,214.647)">
			<stop offset="0" stop-color="#5778ff"/>
			<stop offset="1" stop-color="#bcd5ff"/>
		</linearGradient>
		<radialGradient id="g16" cx="0" cy="0" r="1" gradientUnits="userSpaceOnUse" gradientTransform="matrix(225.411,0,0,225.411,508.426,214.996)">
			<stop offset="0" stop-color="#bcd5ff"/>
			<stop offset="1" stop-color="#5778ff"/>
		</radialGradient>
		<linearGradient id="g17" x2="1" gradientUnits="userSpaceOnUse" gradientTransform="matrix(107.9,0,0,62.284,540.96,215.175)">
			<stop offset="0" stop-color="#bcd5ff"/>
			<stop offset="1" stop-color="#5778ff"/>
		</linearGradient>
		<radialGradient id="g18" cx="0" cy="0" r="1" gradientUnits="userSpaceOnUse" gradientTransform="matrix(170.227,0,0,170.227,538.587,210.018)">
			<stop offset="0" stop-color="#bcd5ff"/>
			<stop offset="1" stop-color="#5778ff"/>
		</radialGradient>
		<linearGradient id="g19" x2="1" gradientUnits="userSpaceOnUse" gradientTransform="matrix(72.646,0,0,26.953,558.587,213.379)">
			<stop offset="0" stop-color="#5778ff"/>
			<stop offset="1" stop-color="#bcd5ff"/>
		</linearGradient>
		<linearGradient id="g20" x2="1" gradientUnits="userSpaceOnUse" gradientTransform="matrix(46.086,0,0,74.287,612.597,255.602)">
			<stop offset="0" stop-color="#e9ffff"/>
			<stop offset="1" stop-color="#c0d6ff"/>
		</linearGradient>
		<linearGradient id="g21" x2="1" gradientUnits="userSpaceOnUse" gradientTransform="matrix(62.566,3.628,-1.649,28.439,621.647,416.014)">
			<stop offset="0" stop-color="#5778ff"/>
			<stop offset="1" stop-color="#42ffff"/>
		</linearGradient>
		<linearGradient id="g22" x2="1" gradientUnits="userSpaceOnUse" gradientTransform="matrix(101.758,5.9,-4.488,77.41,598.916,310.534)">
			<stop offset="0" stop-color="#5778ff"/>
			<stop offset="1" stop-color="#42ffff"/>
		</linearGradient>
		<linearGradient id="g23" x2="1" gradientUnits="userSpaceOnUse" gradientTransform="matrix(278.623,0,0,176.94,657.728,241.255)">
			<stop offset="0" stop-color="#e9ffff"/>
			<stop offset="1" stop-color="#c0d6ff"/>
		</linearGradient>
		<radialGradient id="g24" cx="0" cy="0" r="1" gradientUnits="userSpaceOnUse" gradientTransform="matrix(227.714,0,0,227.714,387.235,358.839)">
			<stop offset="0" stop-color="#bcd5ff"/>
			<stop offset="1" stop-color="#5778ff"/>
		</radialGradient>
	</defs>
	<style>
		.s0 { fill: #42ffff } 
		.s1 { opacity: .5;fill: #242993 } 
		.s2 { fill: url(#g1) } 
		.s3 { fill: url(#g2) } 
		.s4 { fill: url(#g3) } 
		.s5 { fill: url(#g4) } 
		.s6 { fill: url(#g5) } 
		.s7 { fill: url(#g6) } 
		.s8 { fill: #242993 } 
		.s9 { fill: #4553c7 } 
		.s10 { opacity: .4;fill: #42ffff } 
		.s11 { fill: url(#g7) } 
		.s12 { fill: url(#g8) } 
		.s13 { fill: url(#g9) } 
		.s14 { fill: url(#g10) } 
		.s15 { fill: url(#g11) } 
		.s16 { fill: #bcd5ff } 
		.s17 { fill: #5368d8 } 
		.s18 { fill: url(#g12) } 
		.s19 { fill: url(#g13) } 
		.s20 { fill: url(#g14) } 
		.s21 { fill: url(#g15) } 
		.s22 { fill: url(#g16) } 
		.s23 { fill: #ffffff } 
		.s24 { fill: url(#g17) } 
		.s25 { fill: url(#g18) } 
		.s26 { fill: url(#g19) } 
		.s27 { fill: #677eea } 
		.s28 { fill: #162184 } 
		.s29 { fill: url(#g20) } 
		.s30 { fill: url(#g21) } 
		.s31 { fill: #f0ffff } 
		.s32 { fill: #fce8ee } 
		.s33 { fill: #485dce } 
		.s34 { fill: #aa9aac } 
		.s35 { fill: #c4e3ff } 
		.s36 { fill: #e2c8cf } 
		.s37 { fill: url(#g22) } 
		.s38 { fill: #938496 } 
		.s39 { fill: url(#g23) } 
		.s40 { fill: url(#g24) } 
	</style>
	<g id="321353356351 1">
		<path id="&lt;Compound Path&gt;" fill-rule="evenodd" class="s0" d="m693.2 360.9c-1.8 0-3.5-0.5-5.1-1.4l-52.9-30.5c-1.2-0.7-1.9-2-1.9-3.3 0-1.4 0.7-2.6 1.9-3.3l114.7-66.3c3.1-1.8 7-1.8 10.1 0l53 30.6c1.2 0.7 1.9 1.9 1.9 3.3 0 1.4-0.7 2.6-1.9 3.3l-114.8 66.2c-1.5 0.9-3.3 1.4-5 1.4zm61.8-104.2c-1.4 0-2.9 0.3-4.1 1.1l-114.8 66.2c-0.6 0.4-1 1-1 1.7 0 0.7 0.4 1.3 1 1.6l53 30.6c2.5 1.5 5.6 1.5 8.2 0l114.8-66.3c0.6-0.3 0.9-0.9 0.9-1.6 0-0.7-0.3-1.3-0.9-1.7l-53-30.5c-1.3-0.8-2.7-1.1-4.1-1.1z"/>
		<g id="&lt;Group&gt;">
			<g id="&lt;Group&gt;">
				<g id="&lt;Group&gt;">
					<path id="&lt;Compound Path&gt;" fill-rule="evenodd" class="s0" d="m647.6 772.9c-3.2 0-6.2-0.7-8.5-2l-340-197.4c-2.3-1.4-3.6-3.3-3.6-5.5 0-2.5 1.8-5 4.9-6.8l228.5-131.9c5.7-3.3 14.4-3.6 19.3-0.7l340 197.4c2.4 1.3 3.7 3.3 3.7 5.4 0 2.5-1.8 5-5 6.9l-228.4 131.8c-3.1 1.8-7.1 2.8-10.9 2.8zm-7.5-3.6c4.4 2.5 12.3 2.2 17.4-0.8l228.5-131.9c2.6-1.5 4-3.4 4-5.2 0-1.4-0.9-2.8-2.7-3.8l-340-197.4c-4.4-2.6-12.3-2.2-17.5 0.7l-228.4 131.9c-2.6 1.5-4.1 3.4-4.1 5.2 0 1.5 1 2.8 2.8 3.8z"/>
					<path id="&lt;Path&gt;" class="s1" d="m633.7 747.2l-296.5-172.2c-4.1-2.4-3.6-6.5 1.2-9.3l199.2-115c4.7-2.7 11.9-3 16-0.7l296.6 172.2c4.1 2.4 3.6 6.6-1.2 9.3l-199.2 115c-4.8 2.8-12 3.1-16.1 0.7z"/>
					<g id="&lt;Group&gt;">
						<path id="&lt;Path&gt;" class="s2" d="m638.9 717.8l-331.4-192.5c-4.6-2.6-4-7.2 1.3-10.3l221.8-101.7c5.3-3.1 13.3-29.7 17.8-27.1l331.5 192.5c4.6 2.7 4 7.3-1.3 10.3l-221.8 128.1c-5.3 3-13.3 3.4-17.9 0.7z"/>
					</g>
					<path id="&lt;Path&gt;" class="s3" d="m891 564.2l-77.9-5.1-265.3-154.3c-4.7-2.7-13-2.4-18.4 0.8l-171.5 99-61.5-4v16.5h0.1c0 1.8 1 3.4 3.1 4.7l340 197.4c4.7 2.7 13 2.4 18.4-0.8l228.5-131.9c2.8-1.6 4.3-3.7 4.4-5.8h0.1z"/>
					<path id="&lt;Path&gt;" class="s4" d="m639.6 702.3l-340-197.4c-4.7-2.7-4.1-7.5 1.3-10.6l228.5-131.9c5.4-3.2 13.7-3.5 18.4-0.8l340 197.4c4.7 2.8 4.1 7.5-1.3 10.7l-228.5 131.9c-5.4 3.1-13.7 3.4-18.4 0.7z"/>
				</g>
			</g>
		</g>
		<g id="&lt;Group&gt;">
			<path id="&lt;Path&gt;" class="s1" d="m969.2 540.7l-86.4-49.9c-1.4-0.8-1.2-2.3 0.5-3.3l85.5-49.4c1.7-1 4.3-1.1 5.8-0.2l86.4 49.9c1.5 0.8 1.3 2.3-0.4 3.3l-85.6 49.4c-1.7 1-4.3 1.1-5.8 0.2z"/>
			<path id="&lt;Compound Path&gt;" fill-rule="evenodd" class="s0" d="m971.7 563.1c-1.5 0-2.9-0.3-4-0.9l-121.1-69.9c-1.2-0.7-1.9-1.7-1.9-2.9 0-1.3 0.9-2.5 2.5-3.4l119.9-69.3c2.7-1.5 6.7-1.7 9-0.3l121.1 69.9c1.2 0.7 1.9 1.7 1.9 2.9 0 1.3-0.9 2.5-2.5 3.4l-119.9 69.3c-1.4 0.8-3.3 1.2-5 1.2zm0.5-145.7c-1.5 0-3 0.3-4.2 1l-119.9 69.2c-0.9 0.6-1.5 1.2-1.5 1.8 0 0.6 0.5 1 0.9 1.2l121.1 70c1.8 1 5.1 0.8 7.2-0.4l119.9-69.2c0.9-0.6 1.5-1.2 1.5-1.8 0-0.6-0.5-1-0.9-1.2l-121.1-70c-0.8-0.4-1.9-0.6-3-0.6z"/>
			<g id="&lt;Group&gt;">
				<path id="&lt;Path&gt;" class="s5" d="m1062 456.2v-16.7l-27.2 0.1-60.2-34.8c-1.5-0.9-4.1-0.8-5.8 0.2l-59.9 34.6-27.1 0.1 0.1 16.7c0 0.5 0.3 1 0.9 1.4l86.4 49.8c1.5 0.9 4.1 0.8 5.8-0.2l85.6-49.4c0.8-0.5 1.3-1.2 1.4-1.8z"/>
				<path id="&lt;Path&gt;" class="s6" d="m969.2 491l-86.4-49.9c-1.4-0.9-1.2-2.4 0.5-3.3l85.5-49.4c1.7-1 4.3-1.1 5.8-0.3l86.4 49.9c1.5 0.8 1.3 2.3-0.4 3.3l-85.6 49.4c-1.7 1-4.3 1.1-5.8 0.3z"/>
				<path id="&lt;Path&gt;" class="s7" d="m969.2 491l-86.4-49.9c-1.4-0.9-1.2-2.4 0.5-3.3l85.5-49.4c1.7-1 4.3-1.1 5.8-0.3l86.4 49.9c1.5 0.8 1.3 2.3-0.4 3.3l-85.6 49.4c-1.7 1-4.3 1.1-5.8 0.3z"/>
				<path id="&lt;Path&gt;" class="s8" d="m969.5 485.1l-76.5-44.2c-1.3-0.7-1.2-2.1 0.3-2.9l75.9-43.8c1.5-0.9 3.8-1 5.1-0.2l76.6 44.2c1.3 0.7 1.1 2-0.4 2.9l-75.9 43.8c-1.5 0.9-3.8 1-5.1 0.2z"/>
				<path id="&lt;Path&gt;" class="s9" d="m969.7 481.4l-70.3-40.6c-1.2-0.7-1.1-1.9 0.3-2.7l69.7-40.2c1.4-0.8 3.5-0.9 4.7-0.2l70.3 40.6c1.2 0.7 1.1 1.9-0.3 2.7l-69.7 40.2c-1.4 0.8-3.5 0.9-4.7 0.2z"/>
				<g id="&lt;Group&gt;">
					<path id="&lt;Path&gt;" class="s0" d="m970.3 436.9l-8.2-4.8 4.5-2.5 8.2 4.7z"/>
					<path id="&lt;Path&gt;" class="s0" d="m985.6 436.2l-8.2 4.8-4.5-2.6 8.2-4.8z"/>
					<path id="&lt;Path&gt;" class="s0" d="m968.4 438l-4.5 2.6-4.5-2.6 4.5-2.6z"/>
					<path id="&lt;Path&gt;" class="s0" d="m984 446.9l-4.5 2.6-13-7.5 4.5-2.5z"/>
				</g>
			</g>
			<path id="&lt;Path&gt;" class="s10" d="m1062 417.1l-36.8 0.3-50.6-29.3c-1.5-0.8-4.1-0.7-5.8 0.3l-51.3 29.6-35.6 0.2v21.7c0.1 0.4 0.4 0.9 0.9 1.2l86.4 49.9c1.5 0.8 4.1 0.7 5.8-0.3l85.6-49.4c0.7-0.4 1.2-1 1.3-1.5l0.1-0.1z"/>
			<g id="&lt;Group&gt;">
				<path id="&lt;Path&gt;" class="s11" d="m1062 419.3v-16.7h-27.2l-60.2-34.7c-1.5-0.9-4.1-0.8-5.8 0.2l-59.9 34.6h-27.1l0.1 16.7c0 0.6 0.3 1.1 0.9 1.4l86.4 49.9c1.5 0.9 4.1 0.7 5.8-0.2l85.6-49.4c0.8-0.5 1.3-1.2 1.4-1.8z"/>
				<path id="&lt;Path&gt;" class="s12" d="m969.2 454l-86.4-49.8c-1.4-0.9-1.2-2.4 0.5-3.4l85.5-49.4c1.7-1 4.3-1.1 5.8-0.2l86.4 49.9c1.5 0.8 1.3 2.3-0.4 3.3l-85.6 49.4c-1.7 1-4.3 1.1-5.8 0.2z"/>
				<path id="&lt;Path&gt;" class="s8" d="m969.5 448.2l-76.5-44.2c-1.3-0.8-1.2-2.1 0.3-3l75.9-43.8c1.5-0.8 3.8-0.9 5.1-0.2l76.6 44.2c1.3 0.8 1.1 2.1-0.4 3l-75.9 43.8c-1.5 0.9-3.8 0.9-5.1 0.2z"/>
				<path id="&lt;Path&gt;" class="s9" d="m969.7 444.5l-70.3-40.6c-1.2-0.7-1.1-1.9 0.3-2.7l69.7-40.3c1.4-0.8 3.5-0.9 4.7-0.2l70.3 40.7c1.2 0.7 1.1 1.9-0.3 2.7l-69.7 40.2c-1.4 0.8-3.5 0.9-4.7 0.2z"/>
				<g id="&lt;Group&gt;">
					<path id="&lt;Path&gt;" class="s0" d="m970.3 400l-8.2-4.8 4.5-2.6 8.2 4.8z"/>
					<path id="&lt;Path&gt;" class="s0" d="m985.6 399.3l-8.2 4.7-4.5-2.5 8.2-4.8z"/>
					<path id="&lt;Path&gt;" class="s0" d="m968.4 401l-4.5 2.6-4.5-2.6 4.5-2.5z"/>
					<path id="&lt;Path&gt;" class="s0" d="m984 410l-4.5 2.6-13-7.5 4.5-2.6z"/>
				</g>
			</g>
		</g>
		<path id="&lt;Path&gt;" class="s0" d="m858.4 756.2c-1.3 0-2.7-0.4-3.9-1.1l-85.3-49.4 0.9-1.6 85.3 49.4c1.9 1.1 4.2 1.1 6.1 0l276.8-158.9c0.4-0.3 0.7-0.7 0.7-1.2 0-0.5-0.3-1-0.7-1.2l-107.6-62.1 1-1.6 107.5 62c1 0.6 1.7 1.7 1.7 2.9 0 1.2-0.7 2.2-1.7 2.8l-276.8 158.9c-1.2 0.7-2.6 1.1-4 1.1z"/>
		<g id="&lt;Group&gt;">
			<path id="&lt;Path&gt;" class="s1" d="m195.2 706.6l-86.4-49.9c-1.5-0.8-1.3-2.3 0.4-3.3l85.5-49.4c1.7-1 4.3-1.1 5.8-0.2l86.4 49.9c1.5 0.8 1.3 2.3-0.4 3.3l-85.6 49.4c-1.7 1-4.3 1.1-5.7 0.2z"/>
			<path id="&lt;Compound Path&gt;" fill-rule="evenodd" class="s0" d="m197.6 732.2c-1.5 0-3-0.3-4.2-1l-126.3-72.9c-1.3-0.7-2-1.8-2-3 0-1.3 1-2.6 2.6-3.5l125.1-72.3c2.8-1.6 7-1.8 9.4-0.3l126.4 72.9c1.2 0.7 1.9 1.8 1.9 3 0 1.3-0.9 2.6-2.5 3.5l-125.2 72.3c-1.5 0.9-3.4 1.3-5.2 1.3zm0.5-152.1c-1.5 0-3.1 0.3-4.3 1l-125.2 72.3c-1 0.6-1.6 1.3-1.6 1.9 0 0.6 0.6 1.1 1 1.3l126.4 73c1.9 1.1 5.3 0.9 7.5-0.4l125.1-72.2c1-0.6 1.6-1.3 1.6-1.9 0-0.7-0.5-1.1-1-1.3l-126.3-73c-0.9-0.5-2-0.7-3.2-0.7z"/>
			<g id="&lt;Group&gt;">
				<path id="&lt;Path&gt;" class="s13" d="m287.9 619.9v-16.7h-27.2l-60.2-34.8c-1.5-0.8-4.1-0.7-5.8 0.3l-59.9 34.6h-27v16.7c0 0.5 0.3 1 1 1.4l86.4 49.9c1.4 0.8 4 0.7 5.7-0.3l85.6-49.4c0.9-0.5 1.3-1.1 1.4-1.7z"/>
				<path id="&lt;Path&gt;" class="s14" d="m195.2 654.6l-86.4-49.9c-1.5-0.8-1.3-2.3 0.4-3.3l85.5-49.4c1.7-1 4.3-1.1 5.8-0.2l86.4 49.9c1.5 0.8 1.3 2.3-0.4 3.3l-85.6 49.4c-1.7 1-4.3 1.1-5.7 0.2z"/>
				<path id="&lt;Path&gt;" class="s8" d="m195.5 648.8l-76.6-44.2c-1.3-0.8-1.2-2.1 0.3-3l75.9-43.8c1.5-0.8 3.8-0.9 5.1-0.2l76.6 44.2c1.3 0.8 1.1 2.1-0.4 3l-75.8 43.8c-1.5 0.8-3.8 0.9-5.1 0.2z"/>
				<path id="&lt;Path&gt;" class="s9" d="m195.7 645.1l-70.4-40.6c-1.2-0.7-1.1-2 0.3-2.8l69.7-40.2c1.4-0.8 3.5-0.9 4.7-0.2l70.4 40.6c1.2 0.7 1 1.9-0.4 2.7l-69.7 40.3c-1.3 0.8-3.4 0.9-4.6 0.2z"/>
			</g>
			<g id="&lt;Group&gt;">
				<path id="&lt;Path&gt;" class="s0" d="m196.2 600.6l-8.2-4.8 4.5-2.6 8.2 4.8z"/>
				<path id="&lt;Path&gt;" class="s0" d="m211.5 599.9l-8.2 4.7-4.5-2.6 8.2-4.7z"/>
				<path id="&lt;Path&gt;" class="s0" d="m194.3 601.6l-4.4 2.6-4.5-2.6 4.5-2.6z"/>
				<path id="&lt;Path&gt;" class="s0" d="m209.9 610.6l-4.5 2.6-13-7.5 4.5-2.6z"/>
			</g>
		</g>
		<path id="&lt;Path&gt;" class="s0" d="m202.4 832.8c-1.7 0-3.5-0.4-5-1.3l-145.8-83.8c-0.9-0.5-1.4-1.5-1.4-2.6 0-1 0.5-2 1.4-2.5l82.4-47.4 0.9 1.7-82.3 47.3c-0.5 0.3-0.6 0.7-0.6 0.9 0 0.2 0.1 0.7 0.6 1l145.7 83.7c2.5 1.5 5.7 1.5 8.2 0l272.1-153.8 0.9 1.7-272 153.8c-1.6 0.9-3.3 1.3-5.1 1.3z"/>
		<path id="&lt;Compound Path&gt;" fill-rule="evenodd" class="s0" d="m251.7 471.6c-1.9 0-3.7-0.5-5.3-1.4l-52.7-30.5c-1.2-0.7-1.9-1.9-1.9-3.3 0-1.4 0.7-2.6 1.9-3.3l52.7-30.4c3.2-1.9 7.3-1.9 10.5 0l52.7 30.4c1.2 0.7 2 1.9 2 3.3 0 1.4-0.8 2.6-2 3.3l-52.6 30.5c-1.7 0.9-3.5 1.4-5.3 1.4zm0-68.4c-1.5 0-3 0.4-4.4 1.1l-52.7 30.5c-0.6 0.3-0.9 0.9-0.9 1.6 0 0.7 0.3 1.3 0.9 1.7l52.7 30.4c2.7 1.6 6 1.6 8.7 0l52.7-30.4c0.6-0.4 1-1 1-1.7 0-0.7-0.4-1.3-1-1.6l-52.7-30.5c-1.3-0.7-2.8-1.1-4.3-1.1z"/>
		<path id="&lt;Compound Path&gt;" fill-rule="evenodd" class="s0" d="m479 819.7c-1.6 0-3.3-0.4-4.8-1.3l-53.5-30.8c-1.1-0.7-1.8-1.8-1.8-3.1 0-1.3 0.7-2.5 1.8-3.1l53.5-30.9c3-1.7 6.7-1.7 9.7 0l53.5 30.9c1.1 0.6 1.8 1.8 1.8 3.1 0 1.3-0.7 2.4-1.8 3.1l-53.5 30.8c-1.5 0.9-3.2 1.3-4.9 1.3zm0-68.6c-1.3 0-2.7 0.3-3.9 1l-53.4 30.9c-0.6 0.3-0.9 0.9-0.9 1.5 0 0.6 0.3 1.1 0.9 1.4l53.4 30.9c2.4 1.4 5.5 1.4 7.9 0l53.4-30.9c0.6-0.3 0.9-0.8 0.9-1.4 0-0.6-0.3-1.2-0.9-1.5l-53.4-30.9c-1.2-0.7-2.6-1-4-1z"/>
		<g id="&lt;Group&gt;">
			<g id="&lt;Group&gt;">
				<g id="&lt;Group&gt;" style="opacity: .7">
					<path id="&lt;Path&gt;" class="s8" d="m655.6 519.6c-33.5 19.4-87.9 19.4-121.4 0-33.5-19.3-33.5-50.7 0-70 33.5-19.4 87.9-19.4 121.4 0 33.5 19.3 33.5 50.7 0 70z"/>
				</g>
				<g id="&lt;Group&gt;">
					<g id="&lt;Group&gt;">
						<path id="&lt;Path&gt;" class="s15" d="m700 447.3v-23.4h-8.1c-5.1-7.1-12.7-13.8-22.7-19.5-41-23.7-107.6-23.7-148.6 0-10 5.7-17.6 12.4-22.7 19.5h-8.1v23.4c0 15.5 10.3 31 30.8 42.9 41 23.6 107.6 23.6 148.6 0 20.5-11.9 30.8-27.4 30.8-42.9z"/>
						<path id="&lt;Path&gt;" class="s16" d="m669.2 466.8c-41 23.7-107.6 23.7-148.6 0-41-23.7-41-62.1 0-85.8 41-23.6 107.6-23.6 148.6 0 41 23.7 41 62.1 0 85.8z"/>
					</g>
					<g id="&lt;Group&gt;">
						<path id="&lt;Path&gt;" class="s8" d="m692 423v-31.8h-7.5c-4.7-6.5-11.7-12.7-21-18.1-37.9-21.8-99.3-21.8-137.2 0-9.3 5.4-16.3 11.6-21 18.1h-7.4v31.8c0 14.4 9.4 28.7 28.4 39.7 37.9 21.8 99.3 21.8 137.2 0 19-11 28.5-25.3 28.5-39.7z"/>
						<g id="&lt;Group&gt;" style="opacity: .5">
							<path id="&lt;Path&gt;" class="s9" d="m692 415.4v-31.8h-7.5c-4.7-6.6-11.7-12.8-21-18.1-37.9-21.9-99.3-21.9-137.2 0-9.3 5.3-16.3 11.5-21 18.1h-7.4v31.8c0 14.3 9.4 28.7 28.4 39.6 37.9 21.9 99.3 21.9 137.2 0 19-10.9 28.5-25.3 28.5-39.6z"/>
						</g>
						<path id="&lt;Path&gt;" class="s16" d="m663.5 430.8c-37.9 21.9-99.3 21.9-137.2 0-37.9-21.8-37.9-57.3 0-79.2 37.9-21.9 99.3-21.9 137.2 0 37.9 21.9 37.9 57.4 0 79.2z"/>
					</g>
					<g id="&lt;Group&gt;">
						<g id="&lt;Group&gt;" style="opacity: .5">
							<path id="&lt;Path&gt;" class="s17" d="m661.8 432.5c-16.7 21.2-38.7 32.6-57.3 38.6 21.5-1.2 42.5-6.6 59-16.1 19-10.9 28.5-25.3 28.5-39.6v-9.5c-9.9 5.5-20.3 13.9-30.2 26.6z"/>
						</g>
						<path id="&lt;Path&gt;" class="s18" d="m700 390.7v-23.3h-8.1c-5.1-7.1-12.7-13.8-22.7-19.6-41-23.7-107.6-23.7-148.6 0-10 5.8-17.6 12.5-22.7 19.6h-8.1v23.3c0 15.5 10.3 31.1 30.8 42.9 41 23.7 107.6 23.7 148.6 0 20.5-11.8 30.8-27.4 30.8-42.9z"/>
						<path id="&lt;Path&gt;" class="s16" d="m669.2 410.3c-41 23.7-107.6 23.7-148.6 0-41-23.7-41-62.1 0-85.8 41-23.7 107.6-23.7 148.6 0 41 23.7 41 62.1 0 85.8z"/>
					</g>
					<g id="&lt;Group&gt;">
						<path id="&lt;Path&gt;" class="s8" d="m692 365.3v-31.8h-7.5c-4.7-6.6-11.7-12.7-21-18.1-37.9-21.8-99.3-21.8-137.2 0-9.3 5.4-16.3 11.5-21 18.1h-7.4v31.8c0 14.4 9.4 28.7 28.4 39.7 37.9 21.8 99.3 21.8 137.2 0 19-11 28.5-25.3 28.5-39.7z"/>
						<g id="&lt;Group&gt;" style="opacity: .5">
							<path id="&lt;Path&gt;" class="s9" d="m692 358.1v-31.9h-7.5c-4.7-6.5-11.7-12.7-21-18-37.9-21.9-99.3-21.9-137.2 0-9.3 5.3-16.3 11.5-21 18h-7.4v31.9c0 14.3 9.4 28.6 28.4 39.6 37.9 21.9 99.3 21.9 137.2 0 19-11 28.5-25.3 28.5-39.6z"/>
						</g>
						<path id="&lt;Path&gt;" class="s16" d="m663.5 373.1c-37.9 21.9-99.3 21.9-137.2 0-37.9-21.8-37.9-57.3 0-79.2 37.9-21.9 99.3-21.9 137.2 0 37.9 21.9 37.9 57.4 0 79.2z"/>
					</g>
					<g id="&lt;Group&gt;">
						<g id="&lt;Group&gt;" style="opacity: .5">
							<path id="&lt;Path&gt;" class="s17" d="m661.8 371.8c-20.8 26.4-49.7 37.5-70.2 42.2 25.9 0.5 52.1-4.9 71.9-16.3 19-11 28.5-25.3 28.5-39.6v-12.9c-9.9 5.5-20.3 13.9-30.2 26.6z"/>
						</g>
						<path id="&lt;Path&gt;" class="s19" d="m700 333v-23.3h-8.1c-5.1-7.1-12.7-13.8-22.7-19.6-41-23.7-107.6-23.7-148.6 0-10 5.8-17.6 12.5-22.7 19.6h-8.1v23.3c0 15.5 10.3 31.1 30.8 42.9 41 23.7 107.6 23.7 148.6 0 20.5-11.8 30.8-27.4 30.8-42.9z"/>
						<path id="&lt;Path&gt;" class="s16" d="m669.2 352.6c-41 23.7-107.6 23.7-148.6 0-41-23.7-41-62.1 0-85.8 41-23.7 107.6-23.7 148.6 0 41 23.7 41 62.1 0 85.8z"/>
					</g>
					<g id="&lt;Group&gt;">
						<path id="&lt;Path&gt;" class="s8" d="m692 307.6v-31.8h-7.5c-4.7-6.6-11.7-12.7-21-18.1-37.9-21.9-99.3-21.9-137.2 0-9.3 5.4-16.3 11.5-21 18.1h-7.4v31.8c0 14.4 9.4 28.7 28.4 39.6 37.9 21.9 99.3 21.9 137.2 0.1 19-11 28.5-25.3 28.5-39.7z"/>
						<g id="&lt;Group&gt;" style="opacity: .5">
							<path id="&lt;Path&gt;" class="s9" d="m692 298.7v-31.8h-7.5c-4.7-6.6-11.7-12.7-21-18.1-37.9-21.9-99.3-21.9-137.2 0-9.3 5.4-16.3 11.5-21 18.1h-7.4v31.8c0 14.4 9.4 28.7 28.4 39.6 37.9 21.9 99.3 21.9 137.2 0 19-10.9 28.5-25.2 28.5-39.6z"/>
						</g>
						<path id="&lt;Path&gt;" class="s16" d="m663.5 315.4c-37.9 21.9-99.3 21.9-137.2 0-37.9-21.9-37.9-57.3 0-79.2 37.9-21.9 99.3-21.9 137.2 0 37.9 21.9 37.9 57.3 0 79.2z"/>
					</g>
					<g id="&lt;Group&gt;">
						<path id="&lt;Path&gt;" class="s20" d="m700 275.3v-23.3h-8.1c-5.1-7.1-12.7-13.8-22.7-19.6-41-23.7-107.6-23.7-148.6 0-10 5.8-17.6 12.5-22.7 19.6h-8.1v23.3c0 15.5 10.3 31.1 30.8 42.9 41 23.7 107.6 23.7 148.6 0 20.5-11.8 30.8-27.4 30.8-42.9z"/>
						<path id="&lt;Path&gt;" class="s16" d="m669.2 294.9c-41 23.7-107.6 23.7-148.6 0-41-23.7-41-62.1 0-85.8 41-23.7 107.6-23.7 148.6 0 41 23.7 41 62.1 0 85.8z"/>
						<path id="&lt;Path&gt;" class="s16" d="m669.2 294.9c-41 23.7-107.6 23.7-148.6 0-41-23.7-41-62.1 0-85.8 41-23.7 107.6-23.7 148.6 0 41 23.7 41 62.1 0 85.8z"/>
					</g>
					<g id="&lt;Group&gt;">
						<g id="&lt;Group&gt;" style="opacity: .5">
							<path id="&lt;Path&gt;" class="s17" d="m661.8 311.1c-22.8 29-55.5 39.5-75.9 43.4 27.7 1.5 56.4-3.9 77.6-16.2 19-10.9 28.5-25.2 28.5-39.6v-14.2c-9.9 5.5-20.3 13.9-30.2 26.6z"/>
						</g>
						<path id="&lt;Path&gt;" class="s21" d="m700 275.3v-23.3h-8.1c-5.1-7.1-12.7-13.8-22.7-19.6-41-23.7-107.6-23.7-148.6 0-10 5.8-17.6 12.5-22.7 19.6h-8.1v23.3c0 15.5 10.3 31.1 30.8 42.9 41 23.7 107.6 23.7 148.6 0 20.5-11.8 30.8-27.4 30.8-42.9z"/>
						<path id="&lt;Path&gt;" class="s16" d="m669.2 294.9c-41 23.7-107.6 23.7-148.6 0-41-23.7-41-62.1 0-85.8 41-23.7 107.6-23.7 148.6 0 41 23.7 41 62.1 0 85.8z"/>
						<path id="&lt;Path&gt;" class="s22" d="m669.2 294.9c-41 23.7-107.6 23.7-148.6 0-41-23.7-41-62.1 0-85.8 41-23.7 107.6-23.7 148.6 0 41 23.7 41 62.1 0 85.8z"/>
						<path id="&lt;Path&gt;" class="s23" d="m669.8 293c-41 23.7-107.6 23.7-148.6 0-25.1-14.5-34.8-34.5-29.2-53.3-6.9 19.3 2.7 40.2 28.6 55.2 41 23.7 107.6 23.7 148.6 0 15.9-9.2 25.6-20.6 29.2-32.5-4 11.2-13.5 21.9-28.6 30.6z"/>
						<path id="&lt;Path&gt;" class="s23" d="m669.8 350.8c-41 23.6-107.6 23.6-148.6 0-25.1-14.6-34.8-34.6-29.2-53.4-6.9 19.3 2.7 40.2 28.6 55.2 41 23.7 107.6 23.7 148.6 0 15.9-9.2 25.6-20.6 29.2-32.5-4 11.2-13.5 21.9-28.6 30.7z"/>
						<path id="&lt;Path&gt;" class="s23" d="m669.8 408.5c-41 23.7-107.6 23.7-148.6 0-25.1-14.5-34.8-34.6-29.2-53.4-6.9 19.3 2.7 40.2 28.6 55.2 41 23.7 107.6 23.7 148.6 0 15.9-9.2 25.6-20.6 29.2-32.5-4 11.3-13.5 22-28.6 30.7z"/>
						<path id="&lt;Path&gt;" class="s23" d="m669.8 466.2c-41 23.7-107.6 23.7-148.6 0-25.1-14.5-34.8-34.6-29.2-53.4-6.9 19.4 2.7 40.2 28.6 55.2 41 23.7 107.6 23.7 148.6 0 15.9-9.2 25.6-20.6 29.2-32.5-4 11.3-13.5 22-28.6 30.7z"/>
					</g>
					<g id="&lt;Group&gt;">
						<path id="&lt;Path&gt;" class="s24" d="m648.9 246.3v-12h-4.2c-2.6-3.6-6.5-7-11.6-10-21.1-12.2-55.3-12.2-76.3 0-5.2 3-9.1 6.4-11.7 10h-4.1v12c0 8 5.2 16 15.8 22 21 12.2 55.2 12.2 76.3 0 10.5-6 15.8-14 15.8-22z"/>
						<path id="&lt;Path&gt;" class="s16" d="m633.1 256.4c-21.1 12.1-55.3 12.1-76.3 0-21.1-12.2-21.1-31.9 0-44.1 21-12.1 55.2-12.1 76.3 0 21 12.2 21 31.9 0 44.1z"/>
						<path id="&lt;Path&gt;" class="s25" d="m633.1 256.4c-21.1 12.1-55.3 12.1-76.3 0-21.1-12.2-21.1-31.9 0-44.1 21-12.1 55.2-12.1 76.3 0 21 12.2 21 31.9 0 44.1z"/>
						<path id="&lt;Path&gt;" class="s23" d="m633.1 253.9c-21.1 12.2-55.3 12.2-76.3 0-10-5.7-15.3-13.2-15.8-20.8-0.6 8.4 4.7 16.9 15.8 23.3 21 12.1 55.2 12.1 76.3 0 11-6.4 16.3-14.9 15.7-23.3-0.5 7.6-5.7 15.1-15.7 20.8z"/>
						<path id="&lt;Path&gt;" class="s8" d="m620.6 249.2c-14.2 8.2-37.2 8.2-51.4 0-4.4-2.6-7.5-5.6-9.1-8.9-3.7-7.1 5.5-12.3 15.2-17.9 14.2-8.2 24.3-10.2 38.5-2 9.7 5.6 19.6 12.8 15.9 19.9-1.6 3.3-4.7 6.3-9.1 8.9z"/>
						<path id="&lt;Path&gt;" class="s26" d="m569.2 231.5c14.2-8.2 37.2-8.2 51.4 0 4.4 2.5 7.5 5.6 9.1 8.8 3.7-7.1 0.7-15.1-9.1-20.8-14.2-8.2-37.2-8.2-51.4 0-9.7 5.7-12.8 13.7-9.1 20.8 1.7-3.2 4.7-6.3 9.1-8.8z"/>
					</g>
				</g>
				<g id="&lt;Group&gt;">
					<g id="&lt;Group&gt;" style="opacity: .5">
						<path id="&lt;Path&gt;" class="s27" d="m654.1 340.5c-7.1 2.8-12.4 2.1-11.8-1.7 0.5-3.7 6.7-9 13.8-11.7 7.1-2.8 12.3-2.1 11.8 1.6-0.6 3.8-6.8 9-13.8 11.8z"/>
					</g>
					<g id="&lt;Group&gt;" style="opacity: .5">
						<path id="&lt;Path&gt;" class="s27" d="m654.1 399.1c-7.1 2.7-12.4 2-11.8-1.7 0.5-3.7 6.7-9 13.8-11.8 7.1-2.8 12.3-2 11.8 1.7-0.6 3.7-6.8 9-13.8 11.8z"/>
					</g>
					<g id="&lt;Group&gt;" style="opacity: .5">
						<path id="&lt;Path&gt;" class="s27" d="m654.4 458c-7 2.8-12.3 2-11.8-1.7 0.6-3.7 6.8-9 13.9-11.8 7-2.8 12.3-2 11.8 1.7-0.6 3.7-6.8 9-13.9 11.8z"/>
					</g>
					<g id="&lt;Group&gt;" style="opacity: .5">
						<path id="&lt;Path&gt;" class="s27" d="m674.2 325.8c-1.6 1.2-3.7 1.2-4.6-0.1-0.9-1.3-0.3-3.3 1.3-4.5 1.7-1.1 3.8-1.1 4.7 0.2 0.9 1.3 0.3 3.2-1.4 4.4z"/>
					</g>
					<g id="&lt;Group&gt;" style="opacity: .5">
						<path id="&lt;Path&gt;" class="s27" d="m674.2 384.6c-1.6 1.2-3.7 1.2-4.6-0.1-0.9-1.3-0.3-3.3 1.3-4.4 1.7-1.2 3.8-1.2 4.7 0.1 0.9 1.3 0.3 3.2-1.4 4.4z"/>
					</g>
					<g id="&lt;Group&gt;" style="opacity: .5">
						<path id="&lt;Path&gt;" class="s27" d="m674.2 443.2c-1.6 1.2-3.7 1.2-4.6-0.1-0.9-1.3-0.3-3.3 1.3-4.5 1.7-1.2 3.8-1.1 4.7 0.2 0.9 1.2 0.3 3.2-1.4 4.4z"/>
					</g>
				</g>
			</g>
			<g id="&lt;Group&gt;" style="opacity: .7">
				<path id="&lt;Path&gt;" class="s8" d="m689.5 604.3c-26.8 15.5-70.3 15.5-97.1 0-26.8-15.4-26.8-40.5 0-56 26.8-15.5 70.3-15.5 97.1 0 26.8 15.5 26.8 40.6 0 56z"/>
			</g>
			<g id="&lt;Group&gt;" style="opacity: .7">
				<path id="&lt;Path&gt;" class="s8" d="m532.5 563.8c-11.5 6.7-30.2 6.7-41.7 0-11.5-6.6-11.5-17.4 0-24 11.5-6.7 30.2-6.7 41.7 0 11.5 6.6 11.5 17.4 0 24z"/>
			</g>
			<path id="&lt;Path&gt;" class="s8" d="m716.3 349.4c0 0 114.6-5.2 220.1 68.8 0 0-20.5-34.3-70.2-85.3-49.7-51-208-67.1-208-67.1h-19.3c0 0 62 23.6 77.4 83.6z"/>
			<g id="&lt;Group&gt;">
				<path id="&lt;Path&gt;" class="s28" d="m615.1 542.5c0 0-1.8 1.8-3.6 4-1.8 2.1-6.8 5.1-8.9 6.4-2.2 1.3-11.9 8.7-13.9 16-2.1 7.2 4.9 8.2 12 6.9 7.1-1.2 13.8-7.8 15.7-10.2 2-2.3 8.7-7.7 17.4-12.2 8.8-4.6 3.5-10.6 3.5-10.6z"/>
				<path id="&lt;Path&gt;" class="s28" d="m680 564.1c0 0 1.4 3.3 1.8 7.5 0.4 4.2 1 13.3 1.2 16 0.2 2.7 0.3 9.2-4.4 15.4-4.7 6.3-7.1 8.8-13.3 6.3-6.3-2.5-6.1-12.9-5-18.3 1.1-5.4 2.1-17.5 2-18.7-0.1-1.3 0.4-2.1 0.4-2.1z"/>
				<path id="&lt;Path&gt;" class="s8" d="m593.6 419c0 0 1.3 48 12.5 73.5 0 0 8 22.5 9 49.2 0 0-1.8 4.6 0.8 8.3 2.6 3.7 19.1 7.1 21.8-5.1 2.7-12.3 1.6-35.3-1.3-44.9-3-9.5 1-35.9 1-35.9 0 0 4.5 2.8 10.4 21.8 5.9 19 10.2 26.2 12.2 31.4 2.1 5.3 3.9 37.4 2.6 53.1 0 0 13.3 1.9 17.2-4.4 3.8-6.4 5.1-39.3 4.2-49.8-1-10.5-5.4-44.1-4.8-54.5 0.6-10.4 2.8-18.8 0.4-29.2-2.4-10.4-72.6-33.5-72.6-33.5z"/>
				<path id="&lt;Path&gt;" class="s28" d="m679.2 461.7c0.6-10.4 2.8-18.8 0.4-29.2-0.9-3.9-11.4-9.6-24.1-15.2-21.5-1.9-48.7-4.2-50.6-3.9-1.7 0.2-6.2 1.9-9.8 3.4l-1.5 2.2c0 0 0 2.9 0.3 7.7 5 1.5 14.7-0.1 14.7-0.1 1.3 3.4 9.7 15.4 20.1 20.6 10.4 5.1 40.9 3.4 42.6 5.3 1.8 2 2.1 28.3 1.9 31.6-0.2 3.4 2.9 24.4 5.7 43 2.8 18.3-1.4 40.6-1.6 41.3 1-0.7 1.9-1.4 2.5-2.4 3.8-6.4 5.1-39.3 4.2-49.8-1-10.5-5.4-44.1-4.8-54.5z"/>
				<path id="&lt;Path&gt;" class="s9" d="m617.1 262c0 0-15.6 3.5-20.9 4.8-0.8 0.2-1.5 0.8-1.9 1.6-1.5 3.8-5.3 15.7-2.4 33.1 3.5 21.3 2.4 35.7 2.4 35.7l-7.2 37.5c0 0-9.1 35.7-8.3 36.7 0.8 1 20.9 16.2 27.1 14.1 6.3-2.2 4.3-5.7 4.3-5.7 0 0 5 25.9 27.5 25.6 22.5-0.2 40.9-0.2 44.7-9.3 3.8-9-1-47.3-5-62.4-4-15.1-13.4-45.3-13.4-45.3l33-36.5-28.2-21.5c0 0-6.7-12.5-9.5-14.1-2.8-1.5-4.2-0.2-4.2-0.2z"/>
				<path id="&lt;Path&gt;" class="s29" d="m621.6 262.4c-0.3-0.7-1.6-3.6-2.6-6.8-3.9 3.6-6.3 8.1-6.4 13.6 0 0.8 1 1.2 1.5 0.6 1.4-1.7 3.9-4.5 7.4-7.2q0.1-0.1 0.1-0.2z"/>
				<g id="&lt;Group&gt;">
					<path id="&lt;Path&gt;" class="s30" d="m682.2 433.1c-4 9.6-23.4 9.5-47.1 9.8-6 0.1-10.9-1.7-14.8-4.3 4.1 4 9.8 6.9 17.4 6.8 22.5-0.2 40.9-0.2 44.7-9.3 1.3-2.9 1.6-9.1 1.3-16.5 0.1 6-0.4 10.9-1.5 13.5z"/>
				</g>
				<path id="&lt;Path&gt;" class="s31" d="m658.7 256c0 0 5.8 7-2.5 16.4-5.1 5.8-13.9 18.2-21.4 31.2-4.6 8.1-8.9 12.4-11.4 19.3 0 0-0.3-8.2-0.6-21-0.3-12-0.5-24.5 0-27.6 1.1-6.5 29.5-21.4 35.9-18.3z"/>
				<path id="&lt;Path&gt;" class="s32" d="m637.2 277c0 0-3 1.8-4 1.6-1-0.1-4.3-3.3-4.3-3.3 0 0-8.1-0.1-9-3.6-0.9-3.5-1.5-7-2.3-8.9-0.8-1.8-4.4-10.5-4.4-14 0-3.6 0.1-9.9-1.4-13.3-1.5-3.3-3.6-36.8 28.8-35.9 32.3 1 22.3 34.6 22.3 34.6 0 0 2.3 1 0.9 5.3-1.4 4.3-1.8 4.8-2.5 6.9-0.7 2.2-1.1 3.5-3.1 5.3l-0.6 4c0 0 1.6 6.1-2.5 12-4 5.9-17.9 9.3-17.9 9.3z"/>
				<path id="&lt;Path&gt;" class="s33" d="m595.4 267.1c0 0-3.5 0.6-14.7 28.7-6.2 15.7-15.9 32-17.9 43.7-2.1 11.7-0.9 24.1 1.4 25 2.2 0.9 42.4 15.9 55 20.7 0.7 0.2 1.5-0.2 1.6-0.9l3.5-19.5-25-9.6c0 0-4.7-5.8-9.2-8 0 0 5-9.2 4.7-11.7-0.3-2.5 0.4-28.6-2.5-39.2-2.9-10.6 3.1-29.2 3.1-29.2z"/>
				<path id="&lt;Path&gt;" class="s32" d="m610 341.6c0 0-3.5-2.3-4.3-2.7-0.9-0.3-5.5-1.9-6.3-2.3-0.7-0.3-3.4 0-4.7 0.1-0.5 0.1-0.9 0.3-1.2 0.8-1 1.9-4 7.7-3.6 9.9 0 0 8.3 5.2 9.2 7.5l1.3 0.3c0 0 5.6-11.9 9.6-13.6z"/>
				<path id="&lt;Path&gt;" class="s8" d="m677.4 373.7c-0.9-3.6-2.2-8.2-3.6-12.9l-50.6 21.7c0 0 15.2 18.6 41.7 17.4 7.3-0.4 12.5-3 16.4-5.2-1.1-8.3-2.6-15.9-3.9-21z"/>
				<path id="&lt;Path&gt;" class="s8" d="m697 291.9c0 0-13.4 1.9-24.1 18.9-10.8 17.1-18.7 36.9-18.7 36.9l-0.3 2.2c-1 5.8-7.2 9.1-12.6 6.7-11.3-5.1-28.2-12.7-31.3-15 0 0-10.1 5.5-12.9 18.7-2.1 10.5-1.6 10.5-1.6 10.5 0 0 44.9 21 62.2 20.8 17.4-0.2 39.4-57.2 41.8-69 2.4-11.8 5.1-27.3-2.5-30.7z"/>
				<path id="&lt;Path&gt;" class="s33" d="m697 291.9c0 0-13.4 1.9-24.1 18.9-10.8 17.1-18.7 36.9-18.7 36.9l-0.3 2.2c-1 5.8-7.2 9.1-12.6 6.7-11.3-5.1-28.2-12.7-31.3-15 0 0-10.1 5.5-12.9 18.7-2.1 10.5-1.6 10.5-1.6 10.5 0 0 44.9 21 62.2 20.8 17.4-0.2 39.4-57.2 41.8-69 2.4-11.8 5.1-27.3-2.5-30.7z"/>
				<path id="&lt;Path&gt;" class="s9" d="m647.8 359.3c0 0 5.6 5.3 8.1 2.4 2.5-2.9 1.7-3.2 1.7-3.2 0 0 5.1-0.1 5.8-3.3 0.6-3.2 3.1-1.5 3.2-5 0.2-3.6-4.1-2.9-4.1-2.9z"/>
				<path id="&lt;Path&gt;" class="s32" d="m640.9 356.5c0 0 1.6-1.5 3.6-3.2 2-1.7 5.3-8.7 5.8-9.3 0.6-0.7 7.3-5.9 10.6-6 3.3 0 0.8 3.6 0.1 4.1-0.8 0.5-4 2.1-4 2.1 0 0-3.2 2.8-3.6 3.2-0.4 0.4 9.1-0.7 10.6 0.3 1.5 0.9 1.2 3.3 0.1 4-1.1 0.6-1.9 0.6-1.9 0.6 0 0 1.1 2.9-1.8 4.2-2.8 1.3-3.5 0.6-3.5 0.6 0 0-0.2 4.9-4.9 3.9z"/>
				<path id="&lt;Path&gt;" class="s34" d="m611.1 218.4c0 0-4.3 13.4 6.9 9.6 11.1-3.8 21.1-10.2 24.6-7.8 2.7 1.9 2.6 7.6 2.3 10.2 0 0.9 0.2 1.8 0.7 2.5l3.3 4.8c0.4 0.5 0.6 1.2 0.6 1.8l0.3 3.3c0 0.9 0.7 1.5 1.6 1.6h0.7c0.9 0.1 1.6-0.5 1.8-1.3l0.8-4.9c0 0 2.6-6.6 8.2-4 0 0 3.7-5 2.4-15.6-1.2-10.7-6-21.7-26.8-23.5-20.9-1.7-27.4 23.3-27.4 23.3z"/>
				<path id="&lt;Path&gt;" class="s35" d="m642.9 288.8l-3.1-2.4c0 0-2.9 2.4-4 4.9-1.1 2.6 0 10.6 0 10.6l-1 1.7-1.1-2.2-1-9.5c0 0 1.1-7.1 1.2-7.3 0.1-0.1 6 0.7 6 0.7 0 0 2 1.5 3 3.5z"/>
				<path id="&lt;Path&gt;" class="s35" d="m627.9 279.3c0 0-3.3 0.2-4.8 1.5 0 0 3.5 0.1 4 0.2 0.6 0.1 0.8-1.7 0.8-1.7z"/>
				<path id="&lt;Path&gt;" class="s8" d="m634.3 280l5.6 5.3c0 0-4.9 2.2-6.3 6.6 0 0-6.1 1.2-6.7-1-0.5-2.2 0.1-7.8-0.7-10.3-0.7-2.4 8.1-0.6 8.1-0.6z"/>
				<path id="&lt;Path&gt;" class="s8" d="m627.2 290.7c0 0-1.1 4.6-2.2 6.5-1.1 1.9-2.3 4-2.3 4l0.1 26.9c0 0 9.9-20.4 12-24.5 0 0-0.3-9.8-1.2-11.7-0.9-1.8-6.4-1.2-6.4-1.2z"/>
				<path id="&lt;Path&gt;" class="s36" d="m653.7 251.1c-6.5 18.7-24.8 24.2-24.8 24.2 0 0 3.3 3.2 4.3 3.3 1 0.2 4-1.6 4-1.6 0 0 13.9-3.4 17.9-9.3 4.1-5.9 2.5-12 2.5-12l0.6-4c-2.9 0.9-4.5-0.6-4.5-0.6z"/>
				<path id="&lt;Path&gt;" class="s28" d="m637.4 464.1q0-0.1 0.2 0.1l-7.9-8.4c3.7 5.1-0.6 28.9-1 34.3-0.5 5.4 4.2 16.6 6 29.8 1.7 13.1-1.9 31.8-1.9 31.9 2.3-1.3 4.1-3.5 4.9-6.9 2.7-12.3 1.6-35.3-1.3-44.9-3-9.5 1-35.9 1-35.9z"/>
				<path id="&lt;Path&gt;" class="s37" d="m657.7 391.6c17.4-0.2 39.4-57.2 41.8-69 0.4-2 0.8-4.1 1.2-6.2-0.1 0.2-4.6 12.5-8.9 23.4-4.4 11-27.5 44.3-39.4 46.5-10.7 1.9-49.1-16-56.5-19.5-0.7 4-0.4 4-0.4 4 0 0 44.9 21 62.2 20.8z"/>
				<path id="&lt;Path&gt;" class="s38" d="m652.1 244.4c0.9 0.1 1.6-0.5 1.8-1.3l0.8-4.9c0 0 2.6-6.6 8.2-4 0 0 3.5-4.8 2.5-14.8-6.1 9.2-19.8 13.5-19.8 13.5l3.3 4.8c0.4 0.5 0.6 1.2 0.6 1.8l0.3 3.3c0 0.9 0.7 1.5 1.6 1.6z"/>
			</g>
			<g id="&lt;Group&gt;">
				<path id="&lt;Path&gt;" class="s39" d="m681.9 241.3c0 0-8.1-0.3-18.9 0.5-0.8 2.3-1.1 2.9-1.7 4.6-0.7 2.2-1.1 3.5-3.1 5.3l-0.5 3.3q0 0 0.1 0c7.9 1.9 11.7 11.2 7 17.8q-1.1 1.6-2.7 3.2c-6 6-3.9 6.5-0.9 5.8 5.8-1.3 11.7-1.5 17.6-1 39 3.3 164.2 22.8 257.6 137.4 0 0-69.1-166.1-254.5-176.9z"/>
			</g>
			<g id="&lt;Group&gt;">
				<path id="&lt;Path&gt;" class="s8" d="m583.1 447.4l-61.7-66.3-61.7-5c0 0-9.9 83.7 61.7 172.4 71.6-6 61.7-101.1 61.7-101.1z"/>
				<path id="&lt;Path&gt;" class="s16" d="m459.7 376.1l-13.9 8 61.7 5 13.9-8z"/>
				<path id="&lt;Path&gt;" class="s9" d="m569.2 455.4l-61.7-66.3-25.4-2.5-36.3-2.5c0 0-9.9 83.7 61.7 172.4 71.6-6 61.7-101.1 61.7-101.1z"/>
				<path id="&lt;Path&gt;" class="s40" d="m561.7 456.4l-55.5-59.5-22.8-2.4-32.6-2.1c0 0-9 75.2 55.4 154.9 64.4-5.4 55.5-90.9 55.5-90.9z"/>
				<path id="&lt;Path&gt;" class="s23" d="m569.2 455.4l-61.7-66.3-61.7-5c1.7-1 1.7-1 1.7-1l62.6 5.1 61.6 66.2c0 0 8.3 79.5-45 97.7 50.5-19.8 42.5-96.7 42.5-96.7z"/>
			</g>
		</g>
		<path id="&lt;Compound Path&gt;" fill-rule="evenodd" class="s0" d="m209.6 493.7c-2 0-4.1-0.6-6-1.6l-51.1-29.6c-1.4-0.8-2.2-2.2-2.2-3.8 0-1.5 0.8-3 2.2-3.7l15.6-9c3.7-2.1 8.3-2.1 12 0l51.1 29.6c1.4 0.7 2.2 2.2 2.2 3.7 0 1.6-0.8 3-2.2 3.8l-15.6 9c-1.8 1-3.9 1.6-6 1.6zm-35.5-47.4c-1.8 0-3.5 0.4-5.1 1.3l-15.6 9c-0.8 0.4-1.2 1.2-1.2 2.1 0 0.9 0.4 1.7 1.2 2.2l51.2 29.5c3.1 1.8 7 1.8 10.1 0l15.6-8.9c0.8-0.5 1.2-1.3 1.2-2.2 0-0.9-0.4-1.7-1.2-2.1l-51.2-29.6c-1.5-0.9-3.3-1.3-5-1.3z"/>
		<path id="&lt;Compound Path&gt;" fill-rule="evenodd" class="s0" d="m171.6 517.3c-2.1 0-4.2-0.5-6-1.6l-51.2-29.5c-1.3-0.8-2.2-2.2-2.2-3.8 0-1.6 0.9-3 2.2-3.8l15.6-8.9c3.7-2.1 8.3-2.1 12 0l51.2 29.5c1.4 0.8 2.2 2.2 2.2 3.8 0 1.6-0.8 3-2.2 3.8l-15.6 8.9c-1.9 1.1-3.9 1.6-6 1.6zm-35.6-47.3c-1.7 0-3.5 0.4-5 1.3l-15.6 9c-0.8 0.4-1.3 1.2-1.3 2.1 0 0.9 0.5 1.7 1.3 2.2l51.1 29.5c3.1 1.8 7 1.8 10.1 0l15.7-8.9c0.7-0.5 1.2-1.3 1.2-2.2 0-0.9-0.5-1.7-1.2-2.1l-51.2-29.6c-1.6-0.9-3.3-1.3-5.1-1.3z"/>
		<path id="&lt;Compound Path&gt;" fill-rule="evenodd" class="s0" d="m521.7 844.7c-2.1 0-4.2-0.6-6-1.6l-15.6-9c-1.4-0.8-2.2-2.2-2.2-3.7 0-1.6 0.8-3 2.2-3.8l51.1-29.6c3.7-2.1 8.3-2.1 12 0l15.6 9c1.4 0.8 2.2 2.2 2.2 3.8 0 1.5-0.8 2.9-2.2 3.7l-51.1 29.6c-1.9 1-3.9 1.6-6 1.6zm30.5-46l-51.2 29.5c-0.8 0.5-1.2 1.3-1.2 2.2 0 0.8 0.4 1.7 1.2 2.1l15.6 8.9c3.2 1.8 7 1.8 10.1 0l51.2-29.5c0.8-0.4 1.2-1.2 1.2-2.1 0-0.9-0.4-1.7-1.2-2.2l-15.6-8.9c-3.1-1.8-7-1.8-10.1 0z"/>
		<path id="&lt;Compound Path&gt;" fill-rule="evenodd" class="s0" d="m559.7 868.4c-2 0-4.1-0.6-6-1.6l-15.6-9c-1.3-0.8-2.2-2.2-2.2-3.8 0-1.5 0.9-2.9 2.2-3.7l51.2-29.6c3.7-2.1 8.3-2.1 12 0l15.6 9c1.4 0.8 2.2 2.2 2.2 3.7 0 1.6-0.8 3-2.2 3.8l-51.2 29.6c-1.8 1-3.9 1.6-6 1.6zm35.6-47.4c-1.8 0-3.5 0.5-5.1 1.3l-51.1 29.6c-0.8 0.4-1.3 1.2-1.3 2.1 0 0.9 0.5 1.7 1.3 2.2l15.6 8.9c3.1 1.8 7 1.8 10.1 0l51.2-29.5c0.7-0.5 1.2-1.3 1.2-2.2 0-0.9-0.5-1.7-1.2-2.1l-15.7-9c-1.5-0.8-3.3-1.3-5-1.3z"/>
		<path id="&lt;Compound Path&gt;" fill-rule="evenodd" class="s0" d="m1114.3 739.8c-1.7 0-3.4-0.4-4.9-1.3l-53.4-30.8c-1.1-0.7-1.8-1.9-1.8-3.1 0-1.3 0.7-2.5 1.8-3.1l53.4-30.9c3-1.7 6.8-1.7 9.8 0l53.4 30.9c1.2 0.6 1.8 1.8 1.8 3.1 0 1.2-0.6 2.4-1.8 3l-53.4 30.9c-1.5 0.9-3.2 1.3-4.9 1.3zm0-68.6c-1.3 0-2.7 0.3-3.9 1l-53.5 30.9c-0.5 0.3-0.8 0.8-0.8 1.5 0 0.6 0.3 1.1 0.8 1.4l53.5 30.9c2.4 1.4 5.4 1.4 7.8 0l53.5-30.9c0.5-0.3 0.8-0.8 0.8-1.4 0-0.7-0.3-1.2-0.8-1.5l-53.5-30.9c-1.2-0.7-2.5-1-3.9-1z"/>
		<path id="&lt;Compound Path&gt;" fill-rule="evenodd" class="s0" d="m1071.7 764.8c-2.1 0-4.2-0.6-6-1.6l-51.2-29.6c-1.4-0.8-2.2-2.2-2.2-3.8 0-1.5 0.8-3 2.2-3.7l15.6-9c3.7-2.1 8.3-2.1 12 0l51.2 29.6c1.4 0.7 2.2 2.2 2.2 3.7 0 1.6-0.8 3-2.2 3.8l-15.6 9c-1.9 1-4 1.6-6 1.6zm-35.6-47.4c-1.7 0-3.5 0.4-5 1.3l-15.7 9c-0.7 0.4-1.2 1.2-1.2 2.1 0 0.9 0.5 1.7 1.2 2.2l51.2 29.5c3.1 1.8 7 1.8 10.1 0l15.6-8.9c0.8-0.5 1.3-1.3 1.3-2.2 0-0.9-0.5-1.7-1.3-2.1l-51.1-29.6c-1.6-0.9-3.3-1.3-5.1-1.3z"/>
		<path id="&lt;Compound Path&gt;" fill-rule="evenodd" class="s0" d="m1033.6 788.4c-2 0-4.1-0.5-6-1.6l-51.1-29.5c-1.4-0.8-2.2-2.2-2.2-3.8 0-1.6 0.8-3 2.2-3.8l15.6-8.9c3.7-2.1 8.3-2.1 12 0l51.1 29.5c1.4 0.8 2.2 2.2 2.2 3.8 0 1.6-0.8 3-2.2 3.8l-15.6 8.9c-1.8 1.1-3.9 1.6-6 1.6zm-35.5-47.3c-1.8 0-3.5 0.4-5.1 1.3l-15.6 9c-0.8 0.4-1.2 1.2-1.2 2.1 0 0.9 0.4 1.7 1.2 2.2l51.2 29.5c3.1 1.8 7 1.8 10.1 0l15.6-8.9c0.8-0.5 1.2-1.3 1.2-2.2 0-0.9-0.4-1.7-1.2-2.1l-51.2-29.6c-1.5-0.9-3.3-1.3-5-1.3z"/>
	</g>
</svg>